<svg fill="none" height="44" viewBox="0 0 150 44" width="150" xmlns="http://www.w3.org/2000/svg"><path d="m137.635.000143h-125.2629c-.4566 0-.9077 0-1.3631.0022-.3812.0022-.7593.008591-1.14421.01397-.8361.008692-1.67024.0736739-2.49516.194381-.82376.123335-1.62172.355856-2.36689.6897-.74425.336666-1.42429.774136-2.01546 1.296526-.59427.52092-1.08964 1.12304-1.46706 1.7832-.37847.65884-.640896 1.36485-.778225 2.09365-.138634.72788-.213234 1.46415-.223131 2.2022-.011555.33726-.012775.67564-.018864 1.01295v25.42568c.006089.3415.007309.6724.018864 1.0141.0099.738.0845 1.4742.223131 2.2021.13695.7292.399395 1.4356.778225 2.0947.37725.658.87269 1.2577 1.46706 1.7757.58892.5248 1.26941.9625 2.01546 1.2966.74516.3347 1.54304.5687 2.36689.6939.82506.1197 1.65911.1847 2.49516.1945.38491.0074.76301.0117 1.14421.0117.4554.0022.9066.0022 1.3631.0022h125.2629c.447 0 .902 0 1.349-.0022.38 0 .769-.0043 1.148-.0117.835-.0092 1.667-.0743 2.491-.1945.826-.1261 1.627-.36 2.376-.6939.745-.3343 1.425-.772 2.013-1.2966.593-.52 1.09-1.1193 1.471-1.7757.376-.6596.636-1.3659.771-2.0947.139-.728.216-1.464.231-2.2021.005-.3417.005-.6726.005-1.0141.01-.3996.01-.7971.01-1.2032v-23.0215c0-.4028 0-.80245-.01-1.20098 0-.33731 0-.67569-.005-1.01299-.015-.73812-.092-1.47423-.231-2.2022-.135-.72838-.395-1.43433-.771-2.09366-.768-1.32321-1.987-2.4003-3.484-3.079775-.749-.333028-1.55-.565488-2.376-.6897-.824-.1212389-1.656-.1862435-2.491-.194436-.379-.005368-.768-.011814-1.148-.013959-.447-.0022-.902-.0022-1.349-.0022z" fill="none"/><path d="m10.9092 43.0408c-.38 0-.7509-.0043-1.12793-.0117-.78108-.009-1.56034-.069-2.33138-.1795-.71896-.1092-1.41543-.3124-2.06646-.6028-.64505-.288-1.23339-.6657-1.74248-1.1185-.51646-.4475-.94643-.9665-1.27288-1.5365-.33005-.5736-.55847-1.1885-.67729-1.8233-.12832-.682-.19774-1.3716-.20768-2.0629-.0079-.232-.01826-1.0046-.01826-1.0046v-25.41595s.01103-.76071.01833-.9842c.00951-.6902.07853-1.37875.20646-2.05971.11904-.63646.34763-1.25314.67786-1.82869.32525-.56958.75284-1.08898 1.26619-1.53807.51277-.45336 1.10299-.83296 1.74914-1.12495.64953-.28949 1.34469-.49123 2.06219-.59846.77358-.1116 1.55554-.171938 2.33933-.180505l1.12546-.013434h128.1832l1.139.013973c.777.008141 1.552.067936 2.318.178886.725.10858 1.427.31172 2.084.60276 1.295.58846 2.348 1.51944 3.013 2.66248.325.57158.55 1.18323.667 1.81419.13.68655.202 1.38051.217 2.07637.004.31158.004.64627.004.97936.009.41258.009.80525.009 1.20125v23.0263c0 .3997 0 .7898-.009 1.183 0 .3578 0 .6855-.005 1.0229-.015.6834-.086 1.365-.214 2.0392-.116.6393-.343 1.2591-.673 1.8374-.329.5638-.756 1.0783-1.267 1.5246-.509.4553-1.099.8351-1.745 1.125-.655.2927-1.357.4966-2.081.6049-.771.1111-1.55.1711-2.331.1795-.366.0074-.748.0117-1.12.0117l-1.352.0022z" fill="#000"/><g fill="#fff"><path d="m36.699 22.3315c.0119-.9181.2566-1.8183.7114-2.6169.4547-.7985 1.1047-1.4694 1.8896-1.9503-.4986-.7097-1.1564-1.2937-1.921-1.7058-.7647-.412-1.6152-.6406-2.4841-.6677-1.8534-.1939-3.6501 1.1053-4.5946 1.1053-.9627 0-2.4168-1.086-3.9827-1.0539-1.0128.0326-1.9999.3261-2.8651.852s-1.5789 1.2661-2.0717 2.1486c-2.1345 3.6833-.5424 9.0964 1.5024 12.0737 1.023 1.4579 2.2186 3.0864 3.7831 3.0287 1.5309-.0633 2.1026-.973 3.9506-.973 1.8307 0 2.3672.973 3.9634.9362 1.6427-.0265 2.6777-1.4643 3.6648-2.936.7351-1.0388 1.3007-2.1869 1.6759-3.4018-.9544-.4023-1.7688-1.0757-2.3418-1.9362-.5729-.8605-.8791-1.8701-.8802-2.9029z"/><path d="m33.6848 13.4334c.8957-1.0716 1.337-2.449 1.2301-3.83965-1.3684.14324-2.6324.79505-3.5402 1.82555-.4439.5035-.7838 1.0891-1.0004 1.7236-.2166.6344-.3056 1.3052-.2619 1.9739.6844.0071 1.3615-.1408 1.9803-.4324.6189-.2916 1.1632-.7193 1.5921-1.251z"/><path d="m56.051 29.8544h-5.2242l-1.2546 3.6921h-2.2128l4.9483-13.6598h2.299l4.9484 13.6598h-2.2505zm-4.6832-1.7037h4.1411l-2.0414-5.992h-.0571z"/><path d="m70.2409 28.5666c0 3.0948-1.662 5.0832-4.1701 5.0832-.6354.0331-1.2673-.1128-1.8233-.4209-.556-.3082-1.0138-.7661-1.3208-1.3215h-.0475v4.9328h-2.0511v-13.2537h1.9854v1.6565h.0378c.3211-.5528.7866-1.0084 1.3468-1.3184.5603-.31 1.1944-.4629 1.8349-.4423 2.5361 0 4.2079 1.9981 4.2079 5.0843zm-2.1082 0c0-2.0163-1.0456-3.3419-2.6408-3.3419-1.5671 0-2.6212 1.3535-2.6212 3.3419 0 2.0066 1.0541 3.3505 2.6212 3.3505 1.5953 0 2.6408-1.3159 2.6408-3.3505z"/><path d="m81.2409 28.5666c0 3.0948-1.662 5.0832-4.1702 5.0832-.6353.0331-1.2672-.1128-1.8232-.4209-.556-.3082-1.0138-.7661-1.3208-1.3215h-.0475v4.9328h-2.0511v-13.2537h1.9854v1.6564h.0377c.3211-.5527.7866-1.0083 1.3469-1.3183s1.1944-.4629 1.8349-.4423c2.5362 0 4.2079 1.998 4.2079 5.0843zm-2.1083 0c0-2.0163-1.0455-3.3419-2.6407-3.3419-1.5671 0-2.6213 1.3535-2.6213 3.3419 0 2.0066 1.0542 3.3505 2.6213 3.3505 1.5952 0 2.6408-1.3159 2.6408-3.3505z"/><path d="m88.5098 29.7398c.152 1.3546 1.4724 2.244 3.2766 2.244 1.7289 0 2.9727-.8894 2.9727-2.1108 0-1.0603-.7502-1.6951-2.5264-2.1302l-1.7763-.4265c-2.5167-.6058-3.6851-1.7789-3.6851-3.6824 0-2.3568 2.0608-3.9757 4.9871-3.9757 2.8961 0 4.8815 1.6189 4.9484 3.9757h-2.0706c-.1239-1.3632-1.2546-2.186-2.9069-2.186s-2.783.8325-2.783 2.0442c0 .9657.7222 1.534 2.4887 1.969l1.5101.3695c2.812.6628 3.9804 1.7886 3.9804 3.7867 0 2.5555-2.0425 4.1561-5.2911 4.1561-3.0395 0-5.0917-1.563-5.2242-4.0337z"/><path d="m101.35 21.2305v2.3568h1.9v1.6189h-1.9v5.4903c0 .8529.38 1.2504 1.215 1.2504.226-.0039.451-.0197.675-.0473v1.6092c-.375.0699-.757.1016-1.139.0945-2.023 0-2.8121-.7573-2.8121-2.6888v-5.7083h-1.453v-1.6189h1.4529v-2.3568z"/><path d="m104.352 28.5674c0-3.1335 1.851-5.1026 4.739-5.1026 2.897 0 4.74 1.969 4.74 5.1026 0 3.1421-1.833 5.1025-4.74 5.1025-2.906 0-4.739-1.9604-4.739-5.1025zm7.389 0c0-2.1495-.988-3.4182-2.65-3.4182s-2.65 1.2783-2.65 3.4182c0 2.1581.988 3.4171 2.65 3.4171s2.65-1.259 2.65-3.4171z"/><path d="m115.523 23.5864h1.957v1.6951h.047c.133-.5294.444-.9973.881-1.3249.438-.3277.976-.4952 1.523-.4744.236-.0008.472.0248.703.0763v1.9121c-.299-.0909-.61-.1326-.922-.1235-.298-.0121-.595.0403-.871.1534-.276.1132-.524.2845-.727.5022s-.356.4766-.449.7589c-.093.2824-.124.5814-.09.8768v5.9071h-2.052z"/><path d="m130.088 30.6213c-.276 1.8079-2.042 3.0486-4.303 3.0486-2.906 0-4.711-1.9411-4.711-5.0553 0-3.1238 1.814-5.1498 4.625-5.1498 2.765 0 4.503 1.8928 4.503 4.9124v.7004h-7.057v.1236c-.033.3665.013.7357.135 1.0831.121.3475.316.6651.57.9319s.563.4767.904.6156c.342.1389.71.2038 1.079.1903.485.0452.971-.0667 1.387-.319.416-.2524.738-.6318.921-1.0818zm-6.934-2.9724h4.996c.019-.3295-.032-.6593-.147-.9687-.116-.3093-.294-.5915-.524-.8288-.23-.2374-.507-.4247-.813-.5504-.307-.1256-.636-.1868-.967-.1797-.334-.002-.665.062-.974.1882s-.59.3122-.827.5472c-.236.235-.424.5143-.551.8219-.128.3077-.193.6374-.193.9703z"/><path d="m51.1092 9.6051c.4301-.03075.8616.034 1.2634.18957.4019.15558.7641.39813 1.0606.71013.2964.312.5197.6856.6537 1.094s.1753.8414.1211 1.2676c0 2.0969-1.1371 3.3022-3.0988 3.3022h-2.3787v-6.5635zm-1.3559 5.6353h1.2417c.3073.0183.6148-.0319.9001-.147.2854-.1151.5414-.2921.7494-.5182.2081-.2261.3629-.4957.4533-.7889.0903-.2933.1139-.603.069-.9065.0416-.3023.0157-.6101-.0761-.9012-.0917-.2911-.2469-.5584-.4545-.7827-.2076-.2244-.4624-.4002-.7461-.5148-.2837-.1147-.5894-.1654-.8951-.1485h-1.2417z"/><path d="m55.3626 13.6892c-.0312-.3256.0062-.654.1097-.9643.1036-.3102.2711-.5955.4918-.8375s.4896-.4353.7897-.5676c.3-.1323.6245-.2007.9526-.2007s.6526.0684.9526.2007c.3001.1323.569.3256.7897.5676s.3882.5273.4918.8375c.1035.3103.1409.6387.1097.9643.0318.3258-.0051.6547-.1084.9655-.1033.3107-.2707.5965-.4914.839-.2208.2424-.49.4362-.7903.5688-.3004.1326-.6252.2011-.9537.2011s-.6533-.0685-.9537-.2011c-.3003-.1326-.5695-.3264-.7902-.5688-.2208-.2425-.3882-.5283-.4915-.839-.1033-.3108-.1402-.6397-.1084-.9655zm3.6787 0c0-1.0737-.484-1.7016-1.3333-1.7016-.8525 0-1.3322.6279-1.3322 1.7016 0 1.0822.4797 1.7053 1.3322 1.7053.8494 0 1.3333-.6274 1.3333-1.7053z"/><path d="m66.2806 16.1681h-1.0174l-1.0272-3.6481h-.0776l-1.0229 3.6481h-1.0078l-1.3699-4.9533h.9949l.8903 3.7796h.0732l1.0218-3.7796h.941l1.0218 3.7796h.0776l.886-3.7796h.9808z"/><path d="m68.7969 11.2157h.9442v.7869h.0733c.1243-.2826.334-.5195.5999-.6777.2658-.1582.5745-.2298.8832-.2048.2418-.0181.4846.0182.7104.1063s.4289.2258.5941.4027.2883.3886.3603.6194c.0719.2308.0909.4748.0554.7139v3.2065h-.9808v-2.961c0-.796-.3471-1.1919-1.0725-1.1919-.1642-.0076-.3281.0202-.4805.0817-.1523.0614-.2896.1549-.4023.2741s-.1982.2613-.2507.4166c-.0524.1552-.0706.3199-.0532.4828v2.8977h-.9808z"/><path d="m74.582 9.28125h.9809v6.88685h-.9809z"/><path d="m76.9251 13.6892c-.0312-.3255.0062-.6539.1098-.9642s.2711-.5956.4918-.8376.4897-.4353.7898-.5676c.3-.1323.6245-.2007.9526-.2007.3282 0 .6527.0684.9527.2007.3001.1323.5691.3256.7898.5676s.3882.5273.4918.8376.141.6387.1098.9642c.0318.3259-.0052.6548-.1085.9656-.1034.3107-.2708.5965-.4915.839-.2208.2424-.49.4362-.7903.5688-.3004.1325-.6253.201-.9538.201s-.6533-.0685-.9537-.201c-.3003-.1326-.5695-.3264-.7903-.5688-.2207-.2425-.3882-.5283-.4915-.839-.1033-.3108-.1403-.6397-.1085-.9656zm3.6787 0c0-1.0736-.484-1.7015-1.3333-1.7015-.8526 0-1.3322.6279-1.3322 1.7016 0 1.0822.4797 1.7053 1.3322 1.7053.8493 0 1.3333-.6274 1.3333-1.7054z"/><path d="m82.6484 14.7672c0-.8916.6661-1.4056 1.8485-1.4787l1.3462-.0773v-.4276c0-.5231-.347-.8185-1.0174-.8185-.5476 0-.927.2003-1.0358.5505h-.9496c.1002-.8508.9032-1.3965 2.0306-1.3965 1.246 0 1.9488.6182 1.9488 1.6645v3.3844h-.9442v-.6961h-.0776c-.1575.2497-.3787.4532-.641.5899-.2623.1366-.5562.2014-.8518.1878-.2087.0216-.4195-.0006-.619-.0651-.1996-.0646-.3833-.1701-.5393-.3098-.1561-.1397-.2811-.3104-.3669-.5011-.0859-.1908-.1306-.3974-.1315-.6064zm3.1947-.4233v-.4141l-1.2136.0774c-.6844.0456-.9949.2777-.9949.7143 0 .4458.3881.7052.9216.7052.1564.0158.3143.0001.4644-.0462s.2893-.1222.4094-.2233c.1201-.101.2185-.2251.2895-.3648s.113-.2922.1236-.4485z"/><path d="m88.1094 13.6893c0-1.5651.8073-2.5566 2.063-2.5566.3106-.0143.6188.0599.8887.2137.2699.1539.4902.3812.6353.6553h.0733v-2.72045h.9808v6.88685h-.9398v-.7826h-.0776c-.1563.2722-.3844.4967-.6595.649s-.5867.2267-.9012.2152c-1.2643.0001-2.063-.9915-2.063-2.5604zm1.0132 0c0 1.0506.4969 1.6828 1.3279 1.6828.8266 0 1.3376-.6413 1.3376-1.6785 0-1.0323-.5163-1.6827-1.3376-1.6827-.8257 0-1.328.6364-1.328 1.6784z"/><path d="m96.808 13.6892c-.0313-.3256.0061-.654.1096-.9643.1036-.3102.2711-.5955.4918-.8375s.4897-.4353.7897-.5676.6245-.2007.9526-.2007.6526.0684.9523.2007c.3.1323.569.3256.79.5676s.388.5273.492.8375c.103.3103.141.6387.109.9643.032.3258-.005.6547-.108.9655-.103.3107-.271.5965-.491.839-.221.2424-.49.4362-.791.5688-.2999.1326-.6248.2011-.9533.2011s-.6533-.0685-.9537-.2011c-.3003-.1326-.5695-.3264-.7902-.5688-.2208-.2425-.3882-.5283-.4915-.839-.1033-.3108-.1402-.6397-.1083-.9655zm3.679 0c0-1.0737-.484-1.7016-1.3337-1.7016-.8525 0-1.3321.6279-1.3321 1.7016 0 1.0822.4796 1.7053 1.3321 1.7053.8497 0 1.3337-.6274 1.3337-1.7053z"/><path d="m102.809 11.2157h.944v.7869h.073c.124-.2826.334-.5195.6-.6777s.575-.2298.883-.2048c.242-.0181.485.0182.711.1063.225.0881.428.2258.594.4027.165.1769.288.3886.36.6194s.091.4748.055.7139v3.2065h-.98v-2.961c0-.796-.347-1.1919-1.073-1.1919-.164-.0076-.328.0202-.48.0817-.153.0614-.29.1549-.403.2741-.112.1192-.198.2613-.25.4166-.053.1552-.071.3199-.054.4828v2.8977h-.98z"/><path d="m112.572 9.98242v1.25578h1.076v.8234h-1.076v2.5469c0 .5189.214.7461.702.7461.125-.0004.25-.0079.374-.0226v.8143c-.176.0314-.354.0481-.533.0499-1.091 0-1.525-.3824-1.525-1.3374v-2.7973h-.789v-.8234h.789v-1.25568z"/><path d="m114.988 9.28125h.972v2.72955h.078c.13-.2852.346-.5235.617-.6822.271-.1588.585-.2304.898-.2051.241-.013.482.027.705.1173.223.0902.424.2285.587.4048.164.1764.286.3866.359.6155.072.229.093.471.061.709v3.198h-.982v-2.9568c0-.7912-.369-1.1919-1.062-1.1919-.169-.0138-.339.0093-.497.0677-.159.0584-.303.1506-.422.2702s-.211.2637-.268.4223c-.058.1585-.08.3277-.065.4956v2.8929h-.981z"/><path d="m124.986 14.8306c-.133.4527-.422.8443-.816 1.1063-.393.262-.867.3776-1.337.3267-.328.0087-.653-.0538-.954-.1831s-.57-.3223-.788-.5655c-.219-.2433-.381-.531-.477-.8432s-.122-.6414-.077-.9648c-.044-.3244-.017-.6543.079-.9674.095-.3132.257-.6022.474-.8476s.485-.4414.785-.5747.625-.2009.953-.1981c1.383 0 2.217.9416 2.217 2.497v.3411h-3.509v.0548c-.015.1818.008.3647.067.5372.06.1724.155.3305.28.4641.124.1336.276.2397.444.3117.168.0719.35.108.533.106.234.0281.472-.014.682-.121.211-.1069.385-.2738.5-.4795zm-3.45-1.5962h2.51c.013-.1663-.01-.3333-.066-.4903-.057-.1569-.145-.3005-.26-.4213-.116-.1209-.255-.2163-.409-.2803-.155-.064-.321-.0951-.488-.0913-.17-.0021-.338.0296-.495.0934-.157.0637-.3.1582-.42.2777-.12.1196-.215.2619-.279.4186-.063.1566-.095.3244-.093.4935z"/></g></svg>