<svg fill="none" height="32" viewBox="0 0 159 32" width="159" xmlns="http://www.w3.org/2000/svg" xmlns:xlink="http://www.w3.org/1999/xlink"><clipPath id="a"><path d="m0 0h159v32h-159z"/></clipPath><g clip-path="url(#a)"><path d="m.182062 20.5722 3.820908-1.4679c.13647-.0451.29567.0226.34116.1581.54584 1.4227 1.81948 2.2583 3.75268 2.2583 1.52382 0 2.50179-.6097 2.50179-1.6486 0-3.1616-9.802463-1.9873-9.802463-7.8588 0-3.43262 2.842943-5.53283 7.277933-5.53283 3.50253 0 6.09523 1.37756 6.93673 3.74873.0455.1355-.0227.2936-.1592.3388l-3.8436 1.4679c-.1365.0451-.2729 0-.3412-.1355-.4776-1.084-1.41007-1.626-2.68371-1.626-1.38735 0-2.22886.542-2.22886 1.4679 0 2.9132 9.84797 1.1743 9.84797 7.8363 0 3.6358-3.0022 5.8715-7.68734 5.8715-3.93463 0-6.80031-1.5582-7.91474622-4.5391-.04548708-.1355.04548702-.271.18194822-.3388z" fill="#fff"/><path d="m47.6481 5.5332c5.7996 0 10.5076 4.6747 10.5076 10.4333 0 5.7587-4.708 10.4333-10.5076 10.4333s-10.5075-4.6746-10.5075-10.4333c0-5.7586 4.7079-10.4333 10.5075-10.4333z" fill="#ff6670"/><g fill="#fff"><path d="m27.996 6.43621c-2.1833 0-3.9801.74524-5.231 1.8518v-8.016932c0-.090331-.0455-.15808-.1137-.225829-.0682-.04516583-.1592-.0677487-.2502-.0225829l-4.5942 1.7388839c-.1137.04517-.1819.1355-.1819.24841v22.71844c0 .1355.1137.271.2729.271h4.5942c.1365 0 .2729-.1129.2729-.271v-10.4559c.0455-1.8518 1.6376-3.2971 3.6617-3.2971 2.0697 0 3.5935 1.3098 3.5935 3.6132v10.1398c0 .1355.1137.271.2729.271h4.5488c.1364 0 .2729-.1129.2729-.271v-11.1334c0-4.22301-2.752-7.15879-7.1188-7.15879z"/><path d="m70.5277 6.48055c-2.0924 0-4.0711.9259-5.3902 2.07763v-1.80663c0-.09033-.0455-.15808-.1137-.22583-.0682-.04517-.1592-.06775-.2502-.02259l-4.5487 1.73889c-.1137.04517-.1819.1355-.1819.24841v23.26037c0 .1355.1137.271.2729.271h4.5487c.1365 0 .2729-.1129.2729-.271v-8.2653c1.3874 1.1743 3.2296 1.9647 5.3675 1.9647 5.2537 0 9.4158-3.5907 9.4158-9.4848 0-5.8942-4.1393-9.48485-9.3931-9.48485zm-.705 4.47145c2.7747 0 5.0036 2.2357 5.0036 4.9682s-2.2517 4.9683-5.0036 4.9683c-2.7747 0-5.0036-2.2358-5.0036-4.9683s2.2289-4.9682 5.0036-4.9682z"/><path d="m121.723 7.2489-8.392 24.5928c-.045.1129-.136.1807-.25.1807h-4.89c-.091 0-.159-.0452-.227-.1129-.046-.0678-.069-.1581-.023-.2485l2.433-6.6393h-2.115l-6.459-17.75022c-.023-.09033-.023-.18066.023-.24841.045-.06775.136-.11291.227-.11291h5.14c.114 0 .228.06774.25.18066l4.458 13.86588 4.185-13.86588c.046-.11292.136-.18066.25-.18066h5.117c.091 0 .16.04516.228.11291.045.04517.068.1355.045.22583z"/><path d="m92.4067 6.48055c-1.9787 0-4.0484.88074-5.3903 2.07763v-1.80663c0-.09033-.0455-.15808-.1137-.22583-.0682-.04517-.1592-.06775-.2502-.02259l-4.5487 1.73889c-.1137.04517-.1819.1355-.1819.24841v23.26037c0 .1355.1137.271.2729.271h4.5487c.1365 0 .2729-.1129.2729-.271v-8.2653c1.3874 1.1743 3.2296 1.9647 5.3675 1.9647 5.2538 0 9.4161-3.5907 9.4161-9.4848 0-5.8942-4.1396-9.48485-9.3933-9.48485zm-.7051 4.47145c2.7747 0 5.0036 2.2357 5.0036 4.9682s-2.2516 4.9683-5.0036 4.9683c-2.7747 0-5.0036-2.2358-5.0036-4.9683s2.2289-4.9682 5.0036-4.9682z"/></g><path d="m131.821 15.5819h-1.274v5.6005h1.274zm-5.345 2.2357h-2.183v1.1065h2.183v2.2583h1.274v-2.2583h2.183v-1.1065h-2.183v-2.2357h-1.274zm1.774-9.19127c.296-.29358.683-.45166 1.16-.45166.478 0 .865.1355 1.137.45166.296.29357.433.67748.433 1.17431 0 .47426-.137.88076-.433 1.19686-.295.3162-.682.4743-1.137.4743s-.864-.1581-1.16-.4517c-.295-.3161-.455-.7001-.455-1.19688 0-.51941.16-.90332.455-1.19689zm.251-1.30981c-.342.15808-.637.40649-.887.70007.045-.60974.25-1.08398.568-1.42273.319-.33874.819-.56457 1.478-.72265l2.32-.47424-.182-1.17431-2.547.56457c-.978.20325-1.683.6549-2.161 1.30981-.477.6549-.705 1.55822-.705 2.66478 0 1.21948.251 2.14538.774 2.77768.523.6549 1.251.9711 2.206.9711.568 0 1.069-.1129 1.524-.3388.454-.2258.796-.5645 1.046-.971s.364-.9033.364-1.42275c0-.5194-.114-.99364-.341-1.40014-.228-.40649-.524-.72265-.933-.94848-.387-.22583-.864-.33874-1.387-.33874-.387-.02259-.774.06775-1.137.22583zm7.823 9.57518c.319.2484.546.5645.637.971h-2.524v1.0163h2.501c-.113.3839-.295.7226-.614.971-.341.2485-.728.3839-1.205.3839-.637 0-1.16-.2258-1.592-.6549l-.751.7453c.273.3161.614.5646 1.024.7226.409.1581.864.2484 1.364.2484.569 0 1.092-.1355 1.547-.3839s.819-.5871 1.069-1.0388c.25-.4516.387-.9485.387-1.4905 0-.5419-.137-1.0388-.387-1.4904-.25-.4291-.614-.7904-1.069-1.0388-.455-.2485-.978-.3614-1.547-.3614-.5 0-.955.0904-1.364.2484-.41.1581-.751.4065-1.024.7227l.751.7452c.432-.4516.955-.6775 1.592-.6775.477 0 .864.113 1.205.3614zm.637-6.2103c-.091.271-.273.4968-.523.6549s-.546.2258-.864.2258c-.319 0-.592-.0677-.774-.2032-.181-.1355-.272-.3388-.272-.5646 0-.4968.363-.7452 1.114-.7452h1.319zm.091 1.7389h1.205v-3.27457c0-.7904-.204-1.40014-.636-1.78405-.432-.40649-1.047-.58715-1.843-.58715-.454 0-.887.06774-1.273.18066-.41.11291-.751.29358-1.046.51941l.5.94848c.205-.18066.455-.31616.75-.40649.296-.09033.592-.1355.91-.1355.455 0 .796.11291 1.024.31616.227.20325.341.51941.341.90332v.09033h-1.433c-.796 0-1.365.15808-1.728.45166-.364.29358-.546.70004-.546 1.21944 0 .3162.091.6098.25.8582s.409.4516.705.5871c.318.1355.659.2259 1.069.2259.409 0 .75-.0678 1.046-.2033s.523-.3161.682-.5645v.6549zm6.073-2.59708h-1.365c-.796 0-1.205-.31616-1.205-.94848s.409-.94849 1.25-.94849h1.32zm0 2.59708h1.16v-5.60061h-2.525c-.773 0-1.387.18067-1.842.51941s-.66.83557-.66 1.49047c0 .42908.114.79041.319 1.08398.204.29355.523.49685.909.65495l-1.296 1.8743h1.387l1.115-1.6937h1.455v1.6712zm1.364 8.7621h1.274v-5.6005h-1.66l-1.638 3.5003-1.728-3.5003h-1.524v5.6005h1.273v-3.7262l1.41 3.1165h1.183l1.387-3.139v3.7487zm5.8-11.56243c0 .51943-.159.94853-.455 1.26463-.296.3162-.682.4743-1.16.4743-.318 0-.591-.0678-.841-.2259-.251-.1355-.433-.3387-.592-.6097-.136-.271-.205-.56458-.205-.92591 0-.33874.069-.6549.205-.9259.137-.27099.341-.47424.592-.60974.25-.13549.523-.22583.841-.22583.478 0 .864.15808 1.16.47424.296.36133.455.79041.455 1.30981zm.955 1.51303c.25-.429.364-.9485.364-1.51303 0-.56457-.114-1.06139-.364-1.49047-.25-.42907-.569-.76782-1.001-1.01623s-.909-.36133-1.433-.36133c-.386 0-.727.06775-1.023.20325-.318.1355-.569.33874-.796.58716v-.74524h-1.228v7.63299h1.273v-2.6873c.433.4968 1.024.7452 1.752.7452.523 0 1.023-.1129 1.433-.3613.454-.2259.773-.5646 1.023-.9937zm.068 10.0494h1.274v-5.6005h-1.274v2.2357h-2.774v-2.2357h-1.274v5.6005h1.274v-2.2583h2.774zm7.688-2.8003c0-.5419-.137-1.0388-.387-1.4904-.25-.4291-.614-.7904-1.069-1.0388-.455-.2485-.978-.3614-1.547-.3614-.5 0-.955.0904-1.364.2484-.41.1581-.751.4065-1.024.7227l.751.7452c.432-.4516.955-.6775 1.592-.6775.455 0 .841.113 1.183.3614.318.2484.545.5645.636.971h-2.524v.9485h2.547c-.091.4291-.318.7678-.637 1.0163-.341.2484-.727.3839-1.205.3839-.637 0-1.16-.2259-1.592-.6549l-.751.7452c.273.3162.614.5646 1.024.7226.409.1581.864.2485 1.364.2485.569 0 1.092-.1355 1.547-.3839.455-.2485.819-.5872 1.069-1.0389.25-.429.387-.9259.387-1.4679z" fill="#ff6670"/></g></svg>