<svg fill="none" height="44" viewBox="0 0 149 44" width="149" xmlns="http://www.w3.org/2000/svg" xmlns:xlink="http://www.w3.org/1999/xlink"><linearGradient id="a" gradientUnits="userSpaceOnUse" x1="24.3997" x2="5.93927" y1="9.58162" y2="27.98"><stop offset="0" stop-color="#00a0ff"/><stop offset=".00657" stop-color="#00a1ff"/><stop offset=".2601" stop-color="#00beff"/><stop offset=".5122" stop-color="#00d2ff"/><stop offset=".7604" stop-color="#00dfff"/><stop offset="1" stop-color="#00e3ff"/></linearGradient><linearGradient id="b" gradientUnits="userSpaceOnUse" x1="37.5906" x2="11.0637" y1="22.0016" y2="22.0016"><stop offset="0" stop-color="#ffe000"/><stop offset=".4087" stop-color="#ffbd00"/><stop offset=".7754" stop-color="#ffa500"/><stop offset="1" stop-color="#ff9c00"/></linearGradient><linearGradient id="c" gradientUnits="userSpaceOnUse" x1="27.7188" x2="2.68497" y1="24.5266" y2="49.4762"><stop offset="0" stop-color="#ff3a44"/><stop offset="1" stop-color="#c31162"/></linearGradient><linearGradient id="d" gradientUnits="userSpaceOnUse" x1="8.50115" x2="19.6798" y1=".193166" y2="11.3342"><stop offset="0" stop-color="#32a071"/><stop offset=".0685" stop-color="#2da771"/><stop offset=".4762" stop-color="#15cf74"/><stop offset=".8009" stop-color="#06e775"/><stop offset="1" stop-color="#00f076"/></linearGradient><clipPath id="e"><path d="m.5 0h148v44h-148z"/></clipPath><g clip-path="url(#e)"><path d="m143.019 0h-137.03752c-3.02734 0-5.48148 2.46242-5.48148 5.49997v32.99983c0 3.0376 2.45414 5.5 5.48148 5.5h137.03752c3.027 0 5.481-2.4624 5.481-5.5v-32.99983c0-3.03755-2.454-5.49997-5.481-5.49997z" fill="#000"/><path d="m143.019.879776c1.22.001415 2.391.488654 3.254 1.354804.863.86616 1.349 2.0405 1.35 3.26539v32.99983c-.001 1.2249-.487 2.3992-1.35 3.2654-.863.8661-2.034 1.3534-3.254 1.3548h-137.03752c-1.22078-.0014-2.39115-.4886-3.25436-1.3548-.8632-.8661-1.34873-2.0405-1.35008-3.2654v-32.99983c.00133-1.2249.48686-2.39926 1.35006-3.26542.86321-.86616 2.03359-1.353383 3.25438-1.354774zm0-.879776h-137.03752c-1.45247.00426589-2.84424.585095-3.87129 1.61562-1.02706 1.03052-1.605938 2.42698-1.61019 3.88435v32.99983c.004252 1.4574.58313 2.8538 1.61019 3.8844 1.02705 1.0305 2.41882 1.6113 3.87129 1.6156h137.03752c1.452-.0043 2.844-.5851 3.871-1.6156 1.027-1.0306 1.606-2.427 1.61-3.8844v-32.99983c-.004-1.45737-.583-2.85383-1.61-3.88435-1.027-1.030525-2.419-1.61135411-3.871-1.61562z" fill="none"/><g fill="#fff"><g stroke="#fff" stroke-miterlimit="10" stroke-width=".2"><path d="m52.4829 11.2681c.02.4036-.0422.8071-.1826 1.1859-.1405.3787-.3563.7249-.6343 1.0173-.3116.3242-.6879.5788-1.1043.7471-.4164.1682-.8635.2464-1.3121.2293-.4514.0041-.8991-.0824-1.3167-.2545-.4176-.172-.7968-.4261-1.1152-.7472-.3183-.3212-.5695-.7029-.7387-1.1229-.1692-.4199-.2531-.8696-.2466-1.3225-.0064-.453.0775-.9026.2467-1.32258.1692-.41996.4204-.80175.7387-1.12294.3184-.32119.6975-.5753 1.1151-.74741s.8653-.25874 1.3167-.25481c.4642-.0014.9237.09275 1.3501.27665.3961.16109.7486.41376 1.0289.73744l-.5782.58057c-.2203-.2602-.4973-.46613-.8095-.60191-.3122-.13577-.6514-.19776-.9913-.18117-.3421-.00178-.6811.06575-.9966.19853s-.601.32809-.8395.57422c-.2385.24614-.4251.53804-.5485.85822-.1234.32019-.1811.66209-.1697 1.00519-.0082.5139.1359 1.0187.4141 1.4503.2781.4316.6777.7706 1.1481.9741.4704.2034.9905.2621 1.4942.1686s.9684-.3349 1.3351-.6938c.3376-.3649.5332-.8394.5513-1.3369h-2.3885v-.7928h3.1873c.0301.1643.0456.331.046.498z"/><path d="m57.5394 8.51024h-2.9955v2.09256h2.7012v.7928h-2.7012v2.0926h2.9955v.811h-3.8402v-6.59998h3.8402z"/><path d="m61.1009 14.2992h-.8458v-5.78896h-1.8371v-.81102h4.5201v.81102h-1.8372z"/><path d="m66.2109 14.2992v-6.59998h.8447v6.59998z"/><path d="m70.804 14.2992h-.8458v-5.78896h-1.8371v-.81102h4.52v.81102h-1.8371z"/><path d="m81.1991 13.4475c-.6403.6405-1.5075 1.0001-2.4116 1.0001-.904 0-1.7712-.3596-2.4115-1.0001-.3167-.3219-.5657-.7044-.7322-1.1248-.1664-.4204-.2469-.87-.2367-1.3223-.0102-.4522.0703-.9018.2367-1.32223.1665-.42038.4155-.80288.7322-1.12477.3165-.31761.6922-.56947 1.1058-.74118.4136-.1717.8569-.25988 1.3045-.25948.4476.00039.8907.08936 1.304.2618.4133.17245.7886.42498 1.1045.74315.317.32104.5664.70269.7336 1.1223s.2486.86861.2396 1.32041c.0099.4522-.0707.9018-.2371 1.3222-.1665.4203-.4153.8028-.7318 1.1249zm-4.199-.5526c.4742.4749 1.1169.7417 1.7869.7417s1.3127-.2668 1.7868-.7417c.2432-.2498.4334-.5465.5591-.8721.1256-.3256.1842-.6734.1722-1.0224.012-.3489-.0466-.6967-.1722-1.02231-.1257-.32561-.3159-.62227-.5591-.87205-.4741-.47497-1.1168-.74174-1.7868-.74174s-1.3127.26677-1.7869.74174c-.2428.24998-.4326.5467-.5581.87228s-.184.67328-.172 1.02208c-.012.3489.0465.6966.172 1.0222s.3153.6223.5581.8723z"/><path d="m83.3516 14.2992v-6.59998h1.0288l3.1968 5.13418h.0364l-.0364-1.2719v-3.86228h.8458v6.59998h-.8822l-3.3445-5.38295h-.0364l.0364 1.27195v4.111z"/></g><path d="m75.1956 23.9275c-.9214.0035-1.8212.2809-2.5856.7971-.7645.5162-1.3594 1.2481-1.7096 2.1033s-.44 1.7953-.2581 2.7017c.1819.9063.6274 1.7383 1.2802 2.3908s1.4837 1.0963 2.3877 1.2754 1.8406.0854 2.6916-.2692c.851-.3547 1.5781-.9543 2.0897-1.7233s.7846-1.6728.7846-2.5974c.009-.6184-.106-1.2323-.3382-1.8052-.2323-.5729-.577-1.093-1.0136-1.5295-.4367-.4365-.9564-.7804-1.5283-1.0112-.5718-.2309-1.1841-.3439-1.8004-.3325zm0 7.5139c-.5674.0405-1.1339-.0912-1.6257-.3782s-.8861-.7159-1.1315-1.2308c-.2455-.515-.3307-1.0922-.2447-1.6564.0861-.5643.3394-1.0895.7272-1.5072.3877-.4178.8917-.7087 1.4466-.835.5548-.1263 1.1346-.082 1.664.127s.9838.5731 1.3041 1.0449.4916 1.0294.4916 1.6002c.0172.3606-.0376.7211-.1614 1.0601-.1237.339-.3137.6498-.5589.914s-.5407.4765-.8689.6245c-.3282.1479-.6826.2284-1.0424.2369zm-10.2102-7.5139c-.9215.0035-1.8212.2808-2.5857.797s-1.3594 1.2481-1.7096 2.1033-.44 1.7953-.2581 2.7017.6273 1.7383 1.2801 2.3909c.6528.6525 1.4837 1.0963 2.3877 1.2754s1.8406.0854 2.6916-.2692 1.5782-.9543 2.0897-1.7233c.5116-.769.7846-1.6728.7846-2.5974.0091-.6184-.1059-1.2323-.3382-1.8052-.2322-.5728-.5769-1.093-1.0136-1.5295-.4366-.4365-.9563-.7804-1.5282-1.0112-.5718-.2308-1.184-.3439-1.8003-.3325zm0 7.5139c-.5675.0405-1.134-.0912-1.6258-.3782s-.886-.7159-1.1315-1.2308c-.2454-.515-.3307-1.0922-.2446-1.6564.086-.5643.3394-1.0895.7271-1.5072.3877-.4178.8918-.7087 1.4466-.835s1.1347-.082 1.6641.127.9838.5731 1.3041 1.0449c.3202.4718.4915 1.0294.4915 1.6002.0173.3606-.0376.7211-.1613 1.0601s-.3137.6498-.559.914c-.2452.2642-.5406.4766-.8688.6245-.3283.1479-.6827.2284-1.0424.2369zm-12.1457-6.0784v1.9847h4.7335c-.0683.931-.4479 1.8115-1.0774 2.4988-.4744.4851-1.0448.8651-1.6745 1.1154-.6298.2502-1.3048.3653-1.9816.3377-1.3835-.0188-2.704-.5835-3.6758-1.5718s-1.5166-2.3209-1.5166-3.7092.5448-2.7209 1.5166-3.7092 2.2923-1.553 3.6758-1.5718c1.329-.0174 2.6111.4921 3.5678 1.4177l1.3953-1.4c-.6528-.6484-1.428-1.1595-2.2803-1.5034-.8522-.3439-1.7643-.5136-2.6828-.4991-.9598-.014-1.9128.1636-2.8036.5224-.8908.3589-1.7016.8918-2.3853 1.5679s-1.2266 1.4818-1.5972 2.3703-.5614 1.842-.5614 2.8052.1908 1.9167.5614 2.8052.9135 1.6942 1.5972 2.3703 1.4945 1.209 2.3853 1.5679c.8908.3588 1.8438.5364 2.8036.5224.9379.039 1.8733-.1225 2.7441-.4739.8709-.3513 1.6574-.8845 2.3072-1.5641 1.1538-1.2636 1.7688-2.9301 1.7133-4.6429.0046-.416-.031-.8314-.1061-1.2405zm49.6713 1.5416c-.28-.8474-.814-1.5877-1.528-2.1203s-1.5741-.8318-2.4636-.8568c-.599.0037-1.1911.1293-1.7405.3692-.5493.2398-1.0445.5889-1.4556 1.0262-.411.4373-.7294.9537-.936 1.518-.2065.5643-.2968 1.1647-.2655 1.765-.0135.6151.0967 1.2266.324 1.798s.5671 1.091.999 1.5277.9471.7816 1.5149 1.014c.5677.2324 1.1763.3476 1.7894.3388.7681.0043 1.5249-.183 2.2039-.5449.678-.3618 1.256-.8871 1.682-1.5285l-1.59-1.0632c-.238.3968-.575.7246-.977.9514-.4029.2268-.8573.3447-1.3189.3422-.475.0182-.9445-.1072-1.3477-.36-.4031-.2528-.7212-.6213-.9131-1.0577l6.2347-2.5873zm-6.3581 1.5596c-.022-.3405.024-.682.1351-1.0045.1112-.3224.2853-.6194.5123-.8736.2269-.2541.5021-.4602.8094-.6064.3073-.1461.6406-.2292.9804-.2446.3537-.0233.7065.0583 1.0143.2348s.5566.44.7166.7576zm-5.0691 4.5366h2.0488v-13.7517h-2.0488zm-3.3557-8.0277h-.0706c-.3115-.3396-.6917-.6085-1.115-.7888-.4234-.1803-.8803-.2679-1.3401-.2568-1.2023.0513-2.3384.5667-3.171 1.4385-.8326.8717-1.2975 2.0325-1.2975 3.24 0 1.2074.4649 2.3682 1.2975 3.2399.8326.8718 1.9687 1.3872 3.171 1.4385.4616.0123.9204-.0764 1.3444-.26.424-.1837.803-.4578 1.1107-.8033h.0706v.6735c0 1.7899-.9537 2.7467-2.4904 2.7467-.5121-.0123-1.009-.1772-1.4273-.4739s-.7392-.7116-.9216-1.1919l-1.7839.7444c.3362.8213.9092 1.5232 1.6455 2.0157.7363.4926 1.6024.7533 2.4873.7488 2.4021 0 4.4332-1.4177 4.4332-4.8734v-8.4h-1.9428zm-2.349 6.4683c-.7081-.0603-1.3679-.3851-1.8487-.9102s-.7477-1.2122-.7477-1.9252c0-.7131.2669-1.4002.7477-1.9253s1.1406-.8499 1.8487-.9101c.3523.0172.6976.1055 1.0152.2595.3175.1539.601.3705.8334.6368.2323.2662.4089.5767.5192.9128.1102.3362.1519.6912.1225 1.0439.0275.3505-.0157.703-.127 1.0363-.1114.3334-.2886.6408-.5211.9038-.2324.2631-.5154.4764-.8319.6272-.3166.1508-.6602.236-1.0103.2505zm26.7289-12.1921h-4.902v13.7515h2.046v-5.21h2.856c.579.0318 1.157-.055 1.701-.2553.544-.2002 1.042-.5097 1.463-.9094s.756-.8812.985-1.4153c.229-.534.347-1.1093.347-1.6907s-.118-1.1567-.347-1.6908c-.229-.534-.564-1.0156-.985-1.4153s-.919-.7091-1.463-.9094c-.544-.2002-1.122-.2871-1.701-.2553zm.053 6.6277h-2.909v-4.7138h2.909c.312-.0065.623.0497.914.1652.29.1155.555.2881.778.5076.224.2195.401.4815.522.7707.122.2892.184.5997.184.9134s-.062.6243-.184.9134c-.121.2892-.298.5512-.522.7707-.223.2195-.488.3921-.778.5076-.291.1156-.602.1717-.914.1652zm12.642-1.9748c-.747-.0437-1.49.1322-2.138.5062s-1.174.9297-1.512 1.5991l1.816.7607c.18-.3322.453-.6045.785-.7836.332-.1792.709-.2573 1.084-.2248.519-.0509 1.037.1068 1.44.4384.403.3317.659.8102.711 1.3307v.1416c-.657-.3502-1.389-.5325-2.133-.5308-1.957 0-3.95 1.0792-3.95 3.0961.019.425.123.8419.306 1.2259.182.3839.44.7272.758 1.0094.317.2821.688.4974 1.089.6331.402.1357.827.189 1.25.1568.515.0304 1.029-.0783 1.488-.3148.459-.2364.846-.592 1.122-1.0298h.07v1.0615h1.975v-5.272c0-2.4415-1.816-3.8037-4.161-3.8037zm-.247 7.5365c-.67 0-1.604-.336-1.604-1.1676 0-1.0614 1.163-1.4684 2.168-1.4684.653-.0175 1.299.1414 1.869.46-.075.5965-.363 1.1455-.81 1.5455s-1.024.624-1.623.6305zm11.602-7.2358-2.345 5.962h-.071l-2.433-5.962h-2.204l3.65 8.3327-2.081 4.6352h2.134l5.624-12.9679zm-18.426 8.7979h2.046v-13.7515h-2.046z"/></g><path d="m11.941 8.29275c-.3595.43128-.541.98416-.5073 1.54538v24.32757c-.0338.5613.1478 1.1142.5073 1.5454l.0812.0793 13.582-13.6277v-.3215l-13.582-13.62831z" fill="url(#a)"/><path d="m30.1286 26.7063-4.527-4.5445v-.3215l4.5281-4.5434.1021.0584 5.3639 3.0581c1.5322.8734 1.5322 2.3025 0 3.1764l-5.3639 3.0581z" fill="url(#b)"/><path d="m30.2348 26.6482-4.6303-4.6462-13.6631 13.7091c.3122.2762.7109.4342 1.127.4466.416.0123.8233-.1218 1.1512-.3791z" fill="url(#c)"/><path d="m30.2348 17.354-16.0152-9.13041c-.3279-.2573-.7352-.39139-1.1512-.37906-.4161.01234-.8148.17033-1.127.4466l13.6631 13.70927z" fill="url(#d)"/><g fill="#000"><path d="m30.1327 26.5449-15.9131 9.072c-.3153.2408-.7001.3722-1.0963.3743-.3962.0022-.7824-.1251-1.1002-.3625l-.0817.0819.0811.0793.0006-.0005c.3178.2375.7039.3649 1.1002.3628.3963-.0022.7811-.1336 1.0963-.3746l16.0152-9.1304z" opacity=".2"/><path d="m11.941 35.5493c-.3594-.4313-.541-.9842-.5074-1.5454v.1607c-.0336.5612.1479 1.1141.5074 1.5454l.0817-.082z" opacity=".12"/><path d="m35.5988 23.429-5.466 3.1165.1021.1023 5.3639-3.0581c.3156-.1374.5886-.3572.7907-.6364.2022-.2793.326-.6078.3586-.9513-.0678.3111-.207.6021-.4065.8498s-.4538.4453-.7428.5772z" opacity=".12"/></g><path d="m14.2192 8.38646 21.3791 12.18794c.289.1318.5434.3295.7429.5774.1995.2478.3387.5389.4063.8502-.0324-.3437-.1561-.6724-.3582-.9518-.2022-.2794-.4754-.4992-.791-.6365l-21.3791-12.18795c-1.5322-.87351-2.7856-.14795-2.7856 1.61292v.16071c0-1.76076 1.2534-2.48632 2.7856-1.61292z" fill="#fff" opacity=".25"/></g></svg>