<svg fill="none" viewBox="0 0 40 40" xmlns="http://www.w3.org/2000/svg"><path clip-rule="evenodd" d="m20.0008 0c11.0199 0 19.9992 8.94915 19.9992 19.9322 0 3.9322-1.0884 7.5932-2.9931 10.5763h-34.0123c-1.90468-3.1187-2.99307416-6.6441-2.99307416-10.5763-.13604884-10.98305 8.84319416-19.9322 19.99927416-19.9322zm14.4212 33.7627c-3.6734 3.7966-8.8432 6.2373-14.5573 6.2373s-10.88393-2.4407-14.55726-6.2373zm-14.4212-28.06778c-4.8978 0-8.7072 3.9322-8.7072 8.67798 0 4.8813 5.0338 11.3898 8.7072 15.0508 3.6733-3.5254 8.7071-10.1695 8.7071-15.0508 0-4.74578-3.9454-8.67798-8.7071-8.67798zm0 4.33898c-2.4489 0-4.3536 1.8983-4.3536 4.339s1.9047 4.339 4.3536 4.339c2.4488 0 4.3535-1.8983 4.3535-4.339-.136-2.3051-2.0407-4.339-4.3535-4.339z" fill="#6c2698" fill-rule="evenodd"/></svg>