<svg fill="none" height="24" viewBox="0 0 24 24" width="24" xmlns="http://www.w3.org/2000/svg" xmlns:xlink="http://www.w3.org/1999/xlink"><linearGradient id="a" gradientUnits="userSpaceOnUse" x1="10.9116" x2="9.36093" y1="19.1615" y2="29.3865"><stop offset="0" stop-color="#6c2699"/><stop offset="1" stop-color="#dd2aff"/></linearGradient><clipPath id="b"><rect height="24" rx="4" width="24"/></clipPath><g clip-path="url(#b)"><path d="m24 0h-24v24h24z" fill="url(#a)"/><path d="m23.1824-8.76186-31.58715 12.13149 5.91785 15.40847 31.5871-12.13147z" fill="#f56c73"/><path d="m6.59992 15.2894 2.70983-1.0387c.02331-.0092.04822-.0138.07329-.0133.02508.0005.04981.0059.07277.016.02296.01.04369.0246.061.0427.0173.0182.03084.0396.03983.063.37938 1.0177 1.28266 1.5988 2.64956 1.5988 1.078 0 1.7795-.4426 1.7795-1.1773 0-2.2522-6.94618-1.4121-6.94618-5.60632 0-2.44788 2.00827-3.9443 5.14268-3.9443 2.487 0 4.3086.98457 4.9138 2.66466.0166.04674.0142.09814-.0066.14316-.0208.04503-.0585.08011-.1048.09771l-2.7099 1.04479c-.0452.01733-.0954.0167-.1402-.00178-.0447-.01847-.0808-.05339-.1006-.09758-.1557-.36552-.4215-.67336-.7605-.88061-.3389-.20725-.7341-.30359-1.1304-.27558-.9785 0-1.5807.39142-1.5807 1.05382 0 2.08053 6.9672.83101 6.9672 5.58223 0 2.5954-2.1287 4.1882-5.4196 4.1882-2.79112 0-4.81747-1.1141-5.59729-3.2277-.01662-.0468-.01426-.0981.00656-.1432.02082-.045.05846-.0801.10484-.0977" fill="#fff"/></g></svg>