<svg fill="none" height="258" viewBox="0 0 258 258" width="258" xmlns="http://www.w3.org/2000/svg"><path d="m258 0h-258v258h258z" fill="#fff"/><path d="m216.127 249.317v-8.298h8.296v8.298zm-8.311 0v-8.298h8.311v8.298zm-8.294 0v-8.298h8.296v8.298zm-16.595 0v-8.298h8.296v8.298zm-8.3 0v-8.298h8.3v8.298zm-16.595 0v-8.298h8.303v8.298zm-41.489 0v-8.298h8.299v8.298zm-16.5805 0v-8.298h8.2955v8.298zm-16.5951 0v-8.298h8.2969v8.298zm-24.8945 0v-8.298h8.2994v8.298zm-8.2994 0v-8.298h8.2994v8.298zm-8.2945 0v-8.298h8.2957v8.298zm-8.2994 0v-8.298h8.2994v8.298zm-8.2944 0v-8.298h8.2919v8.298zm-8.2994 0v-8.298h8.2994v8.298zm-8.30318 0v-8.298h8.29938v8.298zm232.33538-8.298v-8.298h8.299v8.298zm-16.595 0v-8.298h8.299v8.298zm-8.295 0v-8.298h8.296v8.298zm-8.31 0v-8.298h8.31v8.298zm-33.191 0v-8.298h8.3v8.298zm-41.489 0v-8.298h8.299v8.298zm-8.295 0v-8.298h8.296v8.298zm-24.8842 0v-8.298h8.2952v8.298zm-24.8945 0v-8.298h8.2994v8.298zm-16.5951 0v-8.298h8.2994v8.298zm-49.78658 0v-8.298h8.29938v8.298zm232.33538-8.298v-8.298h8.299v8.298zm-8.295 0v-8.298h8.296v8.298zm-8.299 0v-8.298h8.299v8.298zm-16.6 0v-8.298h8.31v8.298zm-24.89 0v-8.298h8.296v8.298zm-8.299 0v-8.298h8.299v8.298zm-16.595 0v-8.298h8.295v8.298zm-8.3 0v-8.298h8.3v8.298zm-8.294 0v-8.298h8.296v8.298zm-24.895 0v-8.298h8.3v8.298zm-24.8842 0v-8.298h8.2957v8.298zm-33.1902 0v-8.298h8.2994v8.298zm-16.5951 0v-8.298h8.2957v8.298zm-8.2994 0v-8.298h8.2994v8.298zm-8.2945 0v-8.298h8.2895v8.298zm-16.60498-.001v-8.298h8.29938v8.298zm224.03938-8.298v-8.287h8.296v8.287zm-8.299 0v-8.287h8.299v8.287zm-24.895 0v-8.287h8.296v8.287zm-16.595 0v-8.287h8.296v8.287zm-33.195 0v-8.287h8.299v8.287zm-8.295 0v-8.287h8.296v8.287zm-16.595 0v-8.287h8.296v8.287zm-16.59 0v-8.287h8.291v8.287zm-8.2942 0v-8.287h8.2952v8.287zm-8.2995 0v-8.287h8.2982v8.287zm-8.2944 0v-8.287h8.2944v8.287zm-8.2994 0v-8.287h8.2994v8.287zm-16.5951 0v-8.287h8.2994v8.287zm-16.5951 0v-8.287h8.2957v8.287zm-8.2994 0v-8.287h8.2994v8.287zm-8.2945 0v-8.287h8.2907v8.287zm-16.60378 0v-8.287h8.29938v8.287zm232.33538-8.287v-8.299h8.299v8.299zm-33.195 0v-8.299h8.31v8.299zm-8.295 0v-8.299h8.296v8.299zm-8.299 0v-8.299h8.299v8.299zm-8.295 0v-8.299h8.296v8.299zm-8.299 0v-8.299h8.299v8.299zm-8.295 0v-8.299h8.296v8.299zm-8.299 0v-8.299h8.294v8.299zm-8.299 0v-8.299h8.299v8.299zm-8.295 0v-8.299h8.296v8.299zm-24.894 0v-8.299h8.299v8.299zm-8.291 0v-8.299h8.291v8.299zm-24.8896 0v-8.299h8.2919v8.299zm-8.2994 0v-8.299h8.2994v8.299zm-16.5951 0v-8.299h8.2994v8.299zm-16.5951 0v-8.299h8.2956v8.299zm-8.2995 0v-8.299h8.2995v8.299zm-8.2944 0v-8.299h8.2882v8.299zm-16.60628 0v-8.299h8.29938v8.299zm232.33538-8.299v-8.298h8.299v8.298zm-24.89 0v-8.298h8.296v8.298zm-8.31 0v-8.298h8.31v8.298zm-33.191 0v-8.298h8.3v8.298zm-8.294 0v-8.298h8.296v8.298zm-16.6 0v-8.298h8.299v8.298zm-16.595 0v-8.298h8.299v8.298zm-8.295 0v-8.298h8.296v8.298zm-16.59 0v-8.298h8.291v8.298zm-8.2942 0v-8.298h8.2952v8.298zm-16.5951 0v-8.298h8.3006v8.298zm-8.2994 0v-8.298h8.2994v8.298zm-16.5951 0v-8.298h8.2994v8.298zm-49.78658-.001v-8.298h8.29938v8.298zm215.74038-8.298v-8.298h8.299v8.298zm-16.6 0v-8.298h8.31v8.298zm-16.595 0v-8.298h8.299v8.298zm-16.596 0v-8.298h8.3v8.298zm-8.294 0v-8.298h8.296v8.298zm-8.299 0v-8.298h8.296v8.298zm-8.3 0v-8.298h8.3v8.298zm-16.595 0v-8.298h8.299v8.298zm-16.595 0v-8.298h8.299v8.298zm-8.291 0v-8.298h8.291v8.298zm-24.8893 0v-8.298h8.2956v8.298zm-24.8946 0v-8.298h8.2994v8.298zm-8.2994 0v-8.298h8.2994v8.298zm-8.2944 0v-8.298h8.2957v8.298zm-8.2994 0v-8.298h8.2994v8.298zm-8.2945 0v-8.298h8.2907v8.298zm-8.2994 0v-8.298h8.2994v8.298zm-8.29942 0v-8.298h8.29442v8.298zm215.74042-8.298v-8.298h8.299v8.298zm-8.295 0v-8.298h8.296v8.298zm-8.31 0v-8.298h8.31v8.298zm-33.191 0v-8.298h8.3v8.298zm-16.595 0v-8.298h8.298v8.298zm-24.894 0v-8.298h8.299v8.298zm-16.595 0v-8.298h8.299v8.298zm-24.8849 0v-8.298h8.2994v8.298zm-8.2944 0v-8.298h8.2956v8.298zm-8.2995 0v-8.298h8.2995v8.298zm157.6528-8.298v-8.295h8.296v8.298zm-8.299 0v-8.295h8.299v8.298zm-16.6 0v-8.295h8.31v8.298zm-8.295 0v-8.295h8.296v8.298zm-8.299 0v-8.295h8.299v8.298zm-8.295 0v-8.295h8.296v8.298zm-8.299 0v-8.295h8.299v8.298zm-24.895 0v-8.295h8.3v8.298zm-16.595 0v-8.295h8.3v8.298zm-16.595 0v-8.295h8.3v8.298zm-16.585 0v-8.295h8.296v8.298zm-16.5951 0v-8.295h8.2944v8.298zm-8.2994 0v-8.295h8.2994v8.298zm-8.2945 0v-8.295h8.292v8.298zm-8.2994 0v-8.295h8.2994v8.298zm-16.5951 0v-8.295h8.2957v8.298zm-8.2994 0v-8.295h8.2994v8.298zm-8.2945 0v-8.295h8.2895v8.298zm-8.2994 0v-8.295h8.2994v8.298zm-8.29938 0v-8.295h8.29318v8.298zm215.74018-8.299v-8.298h8.299v8.298zm-8.295 0v-8.298h8.296v8.298zm-8.31 0v-8.298h8.31v8.298zm-8.295 0v-8.298h8.296v8.298zm-8.299 0v-8.298h8.299v8.298zm-8.294 0v-8.298h8.295v8.298zm-24.895 0v-8.298h8.294v8.298zm-33.19 0v-8.298h8.296v8.298zm-8.3 0v-8.298h8.3v8.298zm-41.4793 0v-8.298h8.2994v8.298zm-8.2944 0v-8.298h8.2907v8.298zm-16.6001 0v-8.298h8.2994v8.298zm-33.1902 0v-8.298h8.2994v8.298zm-8.30438.004v-8.298h8.29938v8.298zm232.33538-8.298v-8.298h8.299v8.298zm-16.595 0v-8.298h8.299v8.298zm-16.6 0v-8.298h8.31v8.298zm-8.295 0v-8.298h8.296v8.298zm-24.894 0v-8.298h8.299v8.298zm-41.49 0v-8.298h8.299v8.298zm-24.885 0v-8.298h8.291v8.298zm-24.8891 0v-8.298h8.2944v8.298zm-8.2994 0v-8.298h8.2994v8.298zm-16.5951 0v-8.298h8.2994v8.298zm-8.2994 0v-8.298h8.2994v8.298zm-8.2945 0v-8.298h8.2957v8.298zm-8.2994 0v-8.298h8.2994v8.298zm-8.2945 0v-8.298h8.2895v8.298zm-8.2994 0v-8.298h8.2994v8.298zm-8.29938 0v-8.298h8.29318v8.298zm207.44418-8.298v-8.298h8.296v8.298zm-8.31 0v-8.298h8.31v8.298zm-33.191 0v-8.298h8.3v8.298zm-16.595 0v-8.298h8.298v8.298zm-16.595 0v-8.298h8.296v8.298zm-24.894 0v-8.298h8.299v8.298zm-8.291 0v-8.298h8.291v8.298zm-16.5951 0v-8.298h8.3006v8.298zm-8.2945 0v-8.298h8.2969v8.298zm-41.4896 0v-8.298h8.2957v8.298zm-8.2994 0v-8.298h8.2994v8.298zm-8.2945 0v-8.298h8.2932v8.298zm-16.60128-.005v-8.298h8.29938v8.298zm232.33538-8.298v-8.299h8.299v8.299zm-24.89 0v-8.299h8.296v8.299zm-16.6 0v-8.299h8.296v8.299zm-24.894 0v-8.299h8.299v8.299zm-8.295 0v-8.299h8.296v8.299zm-16.6 0v-8.299h8.3v8.299zm-8.294 0v-8.299h8.295v8.299zm-8.3 0v-8.299h8.3v8.299zm-8.294 0v-8.299h8.296v8.299zm-8.3 0v-8.299h8.3v8.299zm-16.5848 0v-8.299h8.2958v8.299zm-41.4896 0v-8.299h8.2994v8.299zm-24.8945 0v-8.299h8.2994v8.299zm-24.89452 0v-8.299h8.29442v8.299zm224.03942-8.299v-8.298h8.296v8.298zm-8.299 0v-8.298h8.299v8.298zm-8.295 0v-8.298h8.296v8.298zm-24.899 0v-8.298h8.299v8.298zm-8.295 0v-8.298h8.296v8.298zm-16.595 0v-8.298h8.296v8.298zm-8.299 0v-8.298h8.29v8.298zm-8.3 0v-8.298h8.3v8.298zm-8.294 0v-8.298h8.296v8.298zm-8.3 0v-8.298h8.3v8.298zm-8.294 0v-8.298h8.296v8.298zm-41.4797 0v-8.298h8.287v8.298zm-8.2994 0v-8.298h8.2994v8.298zm-8.2944 0v-8.298h8.2845v8.298zm-24.8945 0v-8.298h8.2956v8.298zm199.14-8.298v-8.298h8.288v8.298zm-8.294 0v-8.298h8.295v8.298zm-16.596 0v-8.298h8.296v8.298zm-33.195 0v-8.298h8.296v8.298zm-16.595 0v-8.298h8.296v8.298zm-16.6 0v-8.298h8.299v8.298zm-16.595 0v-8.298h8.299v8.298zm-16.595 0v-8.298h8.299v8.298zm-8.291 0v-8.298h8.291v8.298zm-24.8894 0v-8.298h8.2857v8.298zm-24.8945 0v-8.298h8.2994v8.298zm-8.2995 0v-8.298h8.2995v8.298zm-24.8895 0v-8.298h8.282v8.298zm215.7349-8.298v-8.298h8.287v8.298zm-16.595 0v-8.298h8.3v8.298zm-16.6 0v-8.298h8.311v8.298zm-16.595 0v-8.298h8.299v8.298zm-33.19 0v-8.298h8.285v8.298zm-8.3 0v-8.298h8.3v8.298zm-8.294 0v-8.298h8.296v8.298zm-16.595 0v-8.298h8.295v8.298zm-8.3 0v-8.298h8.3v8.298zm-16.5848 0v-8.298h8.2958v8.298zm-16.5951 0v-8.298h8.2832v8.298zm-8.2995 0v-8.298h8.2995v8.298zm-33.1902 0v-8.298h8.2957v8.298zm-8.2994 0v-8.298h8.2994v8.298zm-24.90938-.001v-8.298h8.29938v8.298zm224.03938-8.298v-8.298h8.296v8.298zm-33.195 0v-8.298h8.296v8.298zm-8.299 0v-8.298h8.299v8.298zm-8.295 0v-8.298h8.296v8.298zm-8.299 0v-8.298h8.299v8.298zm-8.295 0v-8.298h8.296v8.298zm-24.894 0v-8.298h8.295v8.298zm-8.3 0v-8.298h8.3v8.298zm-41.4794 0v-8.298h8.2969v8.298zm-16.5951 0v-8.298h8.2994v8.298zm-16.5951 0v-8.298h8.2994v8.298zm-8.2994 0v-8.298h8.2994v8.298zm-8.2945 0v-8.298h8.2957v8.298zm-8.2994 0v-8.298h8.2994v8.298zm-8.2945 0v-8.298h8.2895v8.298zm215.7354-8.298v-8.2986h8.294v8.2986zm-24.89 0v-8.2986h8.296v8.2986zm-8.31 0v-8.2986h8.31v8.2986zm-24.89 0v-8.2986h8.296v8.2986zm-33.195 0v-8.2986h8.299v8.2986zm-8.295 0v-8.2986h8.296v8.2986zm-8.299 0v-8.2986h8.299v8.2986zm-8.294 0v-8.2986h8.295v8.2986zm-16.591 0v-8.2986h8.291v8.2986zm-24.8891 0v-8.2986h8.2944v8.2986zm-41.4896 0v-8.2986h8.2957v8.2986zm-8.2994 0v-8.2986h8.2994v8.2986zm-16.5951 0v-8.2986h8.2994v8.2986zm-8.30318-.002v-8.2979h8.29938v8.2979zm207.44438-8.2979v-8.2981h8.296v8.2981zm-24.899 0v-8.2981h8.299v8.2981zm-33.191 0v-8.2981h8.298v8.2981zm-8.299 0v-8.2981h8.299v8.2981zm-16.595 0v-8.2981h8.299v8.2981zm-16.595 0v-8.2981h8.299v8.2981zm-8.291 0v-8.2981h8.291v8.2981zm-8.2945 0v-8.2981h8.2955v8.2981zm-33.1902 0v-8.2981h8.2957v8.2981zm-8.2994 0v-8.2981h8.2994v8.2981zm-16.5951 0v-8.2981h8.2957v8.2981zm-16.5951 0v-8.2981h8.2944v8.2981zm-8.2994 0v-8.2981h8.2994v8.2981zm-8.30068 0v-8.2981h8.29938v8.2981zm224.03938-8.2981v-8.3032h8.296v8.2982zm-16.595 0v-8.3032h8.296v8.2982zm-8.311 0v-8.3032h8.311v8.2982zm-8.294 0v-8.3032h8.296v8.2982zm-16.595 0v-8.3032h8.296v8.2982zm-8.3 0v-8.3032h8.3v8.2982zm-24.894 0v-8.3032h8.299v8.2982zm-8.295 0v-8.3032h8.296v8.2982zm-16.595 0v-8.3032h8.296v8.2982zm-8.299 0v-8.3032h8.299v8.2982zm-16.5852 0v-8.3032h8.2952v8.2982zm-24.8945 0v-8.3032h8.2994v8.2982zm-33.1902 0v-8.3032h8.2957v8.2982zm-24.8946 0v-8.3032h8.2995v8.2982zm-8.29688 0v-8.3032h8.29938v8.2982zm224.03938-8.3032v-8.2833h8.296v8.2833zm-16.595 0v-8.2833h8.296v8.2833zm-8.311 0v-8.2833h8.311v8.2833zm-16.595 0v-8.2833h8.3v8.2833zm-8.294 0v-8.2833h8.296v8.2833zm-8.3 0v-8.2833h8.3v8.2833zm-8.294 0v-8.2833h8.296v8.2833zm-8.299 0v-8.2833h8.301v8.2833zm-24.895 0v-8.2833h8.299v8.2833zm-8.294 0v-8.2833h8.295v8.2833zm-8.3 0v-8.2833h8.3v8.2833zm-24.8807 0v-8.2833h8.2982v8.2833zm-8.2944 0v-8.2833h8.2944v8.2833zm-8.2994 0v-8.2833h8.2994v8.2833zm-16.5951 0v-8.2833h8.2994v8.2833zm-8.2994 0v-8.2833h8.2994v8.2833zm-8.2945 0v-8.2833h8.2957v8.2833zm-8.2994 0v-8.2833h8.2994v8.2833zm-16.5951 0v-8.2833h8.2994v8.2833zm149.348-8.2833v-8.2981h8.296v8.2981zm-49.79 0v-8.2981h8.3v8.2981zm-8.291 0v-8.2981h8.291v8.2981zm-8.294 0v-8.2981h8.296v8.2981zm-8.2994 0v-8.2981h8.3019v8.2981zm-8.2944 0v-8.2981h8.2981v8.2981zm-8.2994 0v-8.2981h8.2994v8.2981zm165.9502-8.2981v-8.2982h8.3v8.2982zm-8.295 0v-8.2982h8.296v8.2982zm-8.299 0v-8.2982h8.299v8.2982zm-8.295 0v-8.2982h8.296v8.2982zm-8.31 0v-8.2982h8.31v8.2982zm-8.295 0v-8.2982h8.296v8.2982zm-8.299 0v-8.2982h8.299v8.2982zm-16.595 0v-8.2982h8.299v8.2982zm-16.595 0v-8.2982h8.301v8.2982zm-16.596 0v-8.2982h8.296v8.2982zm-16.595 0v-8.2982h8.296v8.2982zm-16.59 0v-8.2982h8.291v8.2982zm-16.5949 0v-8.2982h8.3044v8.2982zm-16.5951 0v-8.2982h8.2994v8.2982zm-16.5951 0v-8.2982h8.2994v8.2982zm-8.2994 0v-8.2982h8.2994v8.2982zm-8.2944 0v-8.2982h8.2957v8.2982zm-8.2994 0v-8.2982h8.2994v8.2982zm-8.2945 0v-8.2982h8.2969v8.2982zm-8.2994 0v-8.2982h8.2994v8.2982zm-8.29818 0v-8.2982h8.29938v8.2982zm232.33538-8.2982v-8.2982h8.299v8.2982zm-49.79 0v-8.2982h8.299v8.2982zm-16.596 0v-8.2982h8.3v8.2982zm-16.595 0v-8.2982h8.298v8.2982zm-8.299 0v-8.2982h8.299v8.2982zm-49.7755 0v-8.2982h8.2955v8.2982zm-16.5951 0v-8.2982h8.2969v8.2982zm-24.8945 0v-8.2982h8.2994v8.2982zm-49.79028-.0012v-8.2982h8.29938v8.2982zm232.33538-8.2982v-8.2982h8.299v8.2982zm-16.595 0v-8.2982h8.299v8.2982zm-8.295 0v-8.2982h8.296v8.2982zm-8.31 0v-8.2982h8.31v8.2982zm-16.595 0v-8.2982h8.299v8.2982zm-24.89 0v-8.2982h8.296v8.2982zm-8.299 0v-8.2982h8.301v8.2982zm-8.3 0v-8.2982h8.3v8.2982zm-8.294 0v-8.2982h8.295v8.2982zm-8.3 0v-8.2982h8.3v8.2982zm-8.294 0v-8.2982h8.296v8.2982zm-8.3 0v-8.2982h8.3v8.2982zm-16.5847 0v-8.2982h8.2957v8.2982zm-8.2994 0v-8.2982h8.3006v8.2982zm-8.2945 0v-8.2982h8.2969v8.2982zm-8.2994 0v-8.2982h8.2994v8.2982zm-16.5951 0v-8.2982h8.2994v8.2982zm-16.5951 0v-8.2982h8.2957v8.2982zm-8.2994 0v-8.2982h8.2994v8.2982zm-8.2945 0v-8.2982h8.2932v8.2982zm-16.60128 0v-8.2982h8.29938v8.2982zm232.33538-8.2982v-8.2982h8.299v8.2982zm-16.595 0v-8.2982h8.299v8.2982zm-8.295 0v-8.2982h8.296v8.2982zm-8.31 0v-8.2982h8.31v8.2982zm-16.595 0v-8.2982h8.299v8.2982zm-16.596 0v-8.2982h8.3v8.2982zm-8.294 0v-8.2982h8.296v8.2982zm-16.6 0v-8.2982h8.299v8.2982zm-33.19 0v-8.2982h8.299v8.2982zm-8.291 0v-8.2982h8.291v8.2982zm-8.2944 0v-8.2982h8.2954v8.2982zm-24.8946 0v-8.2982h8.2994v8.2982zm-16.5951 0v-8.2982h8.2994v8.2982zm-16.5951 0v-8.2982h8.2957v8.2982zm-8.2994 0v-8.2982h8.2994v8.2982zm-8.2944 0v-8.2982h8.2981v8.2982zm-16.59638 0v-8.2982h8.29938v8.2982zm232.33538-8.2982v-8.2994h8.299v8.2982zm-16.595 0v-8.2994h8.299v8.2982zm-8.295 0v-8.2994h8.296v8.2982zm-8.31 0v-8.2994h8.31v8.2982zm-16.595 0v-8.2994h8.299v8.2982zm-16.596 0v-8.2994h8.3v8.2982zm-16.595 0v-8.2994h8.303v8.2982zm-16.595 0v-8.2994h8.296v8.2982zm-8.299 0v-8.2994h8.299v8.2982zm-8.295 0v-8.2994h8.296v8.2982zm-8.299 0v-8.2994h8.299v8.2982zm-33.1803 0v-8.2994h8.3006v8.2982zm-24.8945 0v-8.2994h8.2994v8.2982zm-16.5951 0v-8.2994h8.2957v8.2982zm-8.2994 0v-8.2994h8.2994v8.2982zm-8.2945 0v-8.2994h8.2969v8.2982zm-16.59758 0v-8.2994h8.29938v8.2982zm232.33538-8.2981v-8.2994h8.299v8.2981zm-49.79 0v-8.2994h8.299v8.2981zm-16.596 0v-8.2994h8.3v8.2981zm-49.785 0v-8.2994h8.296v8.2981zm-8.299 0v-8.2994h8.299v8.2981zm-8.291 0v-8.2994h8.291v8.2981zm-8.2945 0v-8.2994h8.2955v8.2981zm-8.2994 0v-8.2994h8.2994v8.2981zm-8.2944 0v-8.2994h8.2956v8.2981zm-8.2995 0v-8.2994h8.2995v8.2981zm-16.5951 0v-8.2994h8.2994v8.2981zm-49.79148-.0013v-8.2981h8.29938v8.2981zm232.33538-8.2981v-8.29822h8.299v8.29822zm-8.295 0v-8.29822h8.296v8.29822zm-8.299 0v-8.29822h8.299v8.29822zm-8.294 0v-8.29822h8.295v8.29822zm-8.311 0v-8.29822h8.311v8.29822zm-8.295 0v-8.29822h8.296v8.29822zm-8.299 0v-8.29822h8.299v8.29822zm-24.89 0v-8.29822h8.296v8.29822zm-8.299 0v-8.29822h8.299v8.29822zm-16.595 0v-8.29822h8.296v8.29822zm-8.299 0v-8.29822h8.299v8.29822zm-24.885 0v-8.29822h8.291v8.29822zm-24.8896 0v-8.29822h8.2969v8.29822zm-24.8945 0v-8.29822h8.2994v8.29822zm-8.2994 0v-8.29822h8.2994v8.29822zm-8.2945 0v-8.29822h8.2957v8.29822zm-8.2994 0v-8.29822h8.2994v8.29822zm-8.2944 0v-8.29822h8.2919v8.29822zm-8.2994 0v-8.29822h8.2994v8.29822zm-8.30318 0v-8.29822h8.29938v8.29822z" fill="#632e94"/></svg>