<svg fill="none" height="22" viewBox="0 0 114 22" width="114" xmlns="http://www.w3.org/2000/svg"><g fill="#c4a8d6"><path d="m42.9238.949219c-1.9815.000284-3.9185.589941-5.5659 1.694401-1.6474 1.10445-2.9313 2.67412-3.6894 4.5105-.7581 1.83639-.9563 3.85698-.5696 5.80638.3868 1.9494 1.3411 3.74 2.7423 5.1453 1.4013 1.4054 3.1865 2.3624 5.1299 2.75 1.9435.3877 3.9579.1886 5.7885-.5721s3.3953-2.0488 4.4961-3.7015c1.1009-1.6526 1.6884-3.5956 1.6884-5.5832 0-1.31986-.2592-2.62681-.7628-3.84621-.5035-1.21939-1.2417-2.32733-2.1722-3.26056s-2.0351-1.67346-3.2508-2.17843c-1.2157-.50496-2.5187-.76477-3.8345-.764581zm0 15.256381c-1.0266-.0002-2.0301-.3057-2.8836-.8779-.8534-.5721-1.5186-1.3853-1.9114-2.3367-.3927-.9514-.4954-1.9982-.295-3.00817.2003-1.00992.6947-1.93756 1.4207-2.66564.7259-.72807 1.6508-1.22388 2.6576-1.42471 1.0069-.20084 2.0505-.09769 2.9989.2964s1.759 1.06143 2.3293 1.91762.8747 1.8628.8747 2.8925c-.0002 1.3809-.5472 2.7052-1.5207 3.6816-.9736.9764-2.2939 1.525-3.6705 1.525z"/><path d="m5.6197 6.35156-5.61579375 3.25211v2.79603l5.61579375 3.2507v-2.7961l-3.20125-1.8515 3.20125-1.85591z"/><path d="m24.4812 13.5976c-.5702.9937-1.4516 1.7707-2.5072 2.2105s-2.2264.5177-3.3307.2217c-1.1042-.2961-2.0802-.9495-2.7763-1.8589s-1.0734-2.0239-1.0734-3.1704c0-1.14656.3773-2.26104 1.0734-3.17043.6961-.9094 1.6721-1.56283 2.7763-1.85887 1.1043-.29605 2.2751-.21813 3.3307.22165s1.937 1.21681 2.5072 2.21048h5.1841c-.6283-2.35607-2.0891-4.40264-4.1103-5.75829s-4.4648-1.927902-6.8755-1.6101c-2.4107.31781-4.6239 1.50398-6.2273 3.33746-1.6033 1.83349-2.48736 4.18919-2.48736 6.6281 0 2.4389.88406 4.7946 2.48736 6.6281 1.6034 1.8334 3.8166 3.0196 6.2273 3.3374s4.8543-.2544 6.8755-1.6101c2.0212-1.3556 3.482-3.4022 4.1103-5.7583z"/><path d="m65.2595 1.45004v-.00863h-9.0759v19.11049h8.7259c.1162 0 .2317.0087.35.0087 1.1917.0005 2.3719-.2344 3.4732-.6913 1.1012-.457 2.1019-1.1271 2.945-1.972.843-.8449 1.5119-1.8481 1.9684-2.9523.4565-1.1043.6917-2.2879.6922-3.4833v-.9085c.0001-1.19578-.2347-2.37985-.691-3.48457-.4562-1.10473-1.125-2.10845-1.9681-2.95382s-1.844-1.51583-2.9456-1.97306c-1.1015-.45723-2.282-.69228-3.4741-.69171zm4.0467 9.79016c-.0003 1.2246-.4857 2.399-1.3492 3.2648s-2.0345 1.352-3.2554 1.3518c-.0602 0-.1198 0-.1786 0h-3.2012v-9.69945h3.3798c1.2212.00019 2.3923.48688 3.2558 1.35304s1.3487 2.04087 1.3488 3.26581z"/><path d="m89.271 1.44141-4.231 6.92645-4.231-6.92645h-5.9106l7.7077 12.21209v6.9092h4.8693v-6.9092l7.7062-12.21209z"/><path d="m108.383 6.35156v2.79461l3.2 1.85593-3.2 1.8515v2.7961l5.616-3.2507v-2.79533z"/><path d="m98.0396 17.5427 8.2724-13.08176h-2.86l-8.2723 13.08176z"/></g></svg>